<svg width="187" height="42" viewBox="0 0 187 42" fill="none" xmlns="http://www.w3.org/2000/svg">
<path d="M67.7204 22.5027H54.9377V29.269H69.5057V34H49.5639V7.6847H68.863V12.3443H54.9377V17.9323H67.7204V22.5027ZM81.7159 19.8961C81.2875 18.9559 80.4484 18.4858 79.1987 18.4858C77.7466 18.4858 76.7707 18.9559 76.2708 19.8961C75.997 20.4317 75.8602 21.2292 75.8602 22.2884V34H70.7007V14.576H75.6459V17.4146C76.2767 16.4029 76.8718 15.6828 77.4312 15.2544C78.4191 14.4926 79.6986 14.1118 81.2696 14.1118C82.7574 14.1118 83.9595 14.4391 84.8759 15.0937C85.6138 15.7007 86.1732 16.4803 86.5541 17.4324C87.2206 16.2898 88.0478 15.4507 89.0357 14.9152C90.083 14.3796 91.2494 14.1118 92.5349 14.1118C93.3918 14.1118 94.2368 14.2784 95.07 14.6117C95.9031 14.9449 96.6589 15.5281 97.3373 16.3612C97.8848 17.0397 98.2538 17.8728 98.4442 18.8607C98.5632 19.5153 98.6227 20.4734 98.6227 21.735L98.587 34H93.3739V21.61C93.3739 20.8721 93.2549 20.2651 93.0169 19.789C92.5646 18.8845 91.7315 18.4322 90.5175 18.4322C89.113 18.4322 88.143 19.0154 87.6074 20.1818C87.3337 20.8007 87.1968 21.5446 87.1968 22.4134V34H82.073V22.4134C82.073 21.2589 81.954 20.4198 81.7159 19.8961ZM111.297 34.5177C109.69 34.5177 108.399 34.1964 107.423 33.5537C106.84 33.1728 106.209 32.5063 105.531 31.5541V34H100.55V7.7204H105.62V17.0754C106.263 16.1708 106.971 15.4805 107.744 15.0044C108.661 14.4093 109.827 14.1118 111.244 14.1118C113.803 14.1118 115.802 15.0342 117.242 16.879C118.694 18.7238 119.42 21.1042 119.42 24.0202C119.42 27.0433 118.706 29.5487 117.278 31.5363C115.85 33.5239 113.856 34.5177 111.297 34.5177ZM114.082 24.5558C114.082 23.1751 113.904 22.0325 113.547 21.128C112.868 19.4141 111.619 18.5572 109.798 18.5572C107.953 18.5572 106.685 19.3963 105.995 21.0744C105.638 21.9671 105.459 23.1216 105.459 24.5379C105.459 26.2042 105.828 27.5848 106.566 28.6798C107.304 29.7748 108.429 30.3223 109.94 30.3223C111.25 30.3223 112.267 29.7926 112.993 28.7334C113.719 27.6741 114.082 26.2816 114.082 24.5558ZM130.274 19.2356C128.227 19.2356 126.852 19.9021 126.15 21.2351C125.757 21.9849 125.56 23.1394 125.56 24.6986V34H120.437V14.5402H125.293V17.9323C126.078 16.635 126.763 15.7483 127.346 15.2722C128.298 14.4748 129.536 14.0761 131.059 14.0761C131.154 14.0761 131.232 14.082 131.291 14.0939C131.363 14.0939 131.511 14.0999 131.738 14.1118V19.3248C131.416 19.2891 131.131 19.2653 130.881 19.2534C130.631 19.2415 130.428 19.2356 130.274 19.2356ZM132.879 16.6469C134.224 14.933 136.533 14.0761 139.806 14.0761C141.936 14.0761 143.829 14.4986 145.483 15.3436C147.138 16.1887 147.965 17.7835 147.965 20.1282V29.0547C147.965 29.6736 147.977 30.4235 148.001 31.3042C148.036 31.9707 148.137 32.423 148.304 32.661C148.471 32.8991 148.721 33.0954 149.054 33.2502V34H143.519C143.365 33.6072 143.258 33.2383 143.198 32.8931C143.139 32.548 143.091 32.1552 143.055 31.7148C142.353 32.4765 141.544 33.1252 140.627 33.6608C139.532 34.2916 138.294 34.607 136.914 34.607C135.152 34.607 133.694 34.1071 132.54 33.1074C131.397 32.0957 130.826 30.6674 130.826 28.8226C130.826 26.4303 131.748 24.6986 133.593 23.6274C134.605 23.0442 136.093 22.6276 138.056 22.3777L139.788 22.1635C140.728 22.0445 141.401 21.8957 141.806 21.7171C142.532 21.4077 142.895 20.9257 142.895 20.2711C142.895 19.4736 142.615 18.9261 142.055 18.6286C141.508 18.3191 140.699 18.1644 139.627 18.1644C138.425 18.1644 137.574 18.462 137.074 19.0571C136.717 19.4974 136.479 20.0925 136.36 20.8423H131.451C131.558 19.1404 132.034 17.7419 132.879 16.6469ZM136.664 30.3223C137.14 30.7151 137.723 30.9114 138.413 30.9114C139.508 30.9114 140.514 30.5901 141.431 29.9474C142.359 29.3047 142.841 28.1323 142.877 26.4303V24.5379C142.555 24.7403 142.228 24.9069 141.895 25.0378C141.573 25.1568 141.127 25.2699 140.556 25.377L139.413 25.5912C138.342 25.7817 137.574 26.0138 137.11 26.2875C136.325 26.7517 135.932 27.4718 135.932 28.4477C135.932 29.3166 136.176 29.9414 136.664 30.3223ZM166.745 21.5208H161.532C161.437 20.7947 161.193 20.1401 160.8 19.5569C160.229 18.7714 159.342 18.3786 158.14 18.3786C156.426 18.3786 155.254 19.2296 154.623 20.9316C154.29 21.8362 154.123 23.0383 154.123 24.5379C154.123 25.9662 154.29 27.1147 154.623 27.9835C155.23 29.6022 156.372 30.4115 158.051 30.4115C159.241 30.4115 160.086 30.0902 160.586 29.4475C161.086 28.8048 161.389 27.9716 161.496 26.9481H166.691C166.572 28.4953 166.013 29.9593 165.013 31.3399C163.418 33.5656 161.056 34.6784 157.926 34.6784C154.795 34.6784 152.492 33.7501 151.016 31.8933C149.541 30.0366 148.803 27.6265 148.803 24.6629C148.803 21.3184 149.618 18.7178 151.249 16.8611C152.879 15.0044 155.129 14.0761 157.997 14.0761C160.437 14.0761 162.43 14.6236 163.978 15.7185C165.537 16.8135 166.459 18.7476 166.745 21.5208ZM184.329 28.287C184.198 29.4415 183.597 30.6139 182.526 31.8041C180.86 33.6965 178.527 34.6427 175.527 34.6427C173.052 34.6427 170.868 33.8453 168.975 32.2504C167.083 30.6555 166.137 28.0609 166.137 24.4665C166.137 21.0982 166.988 18.5155 168.69 16.7183C170.404 14.9211 172.623 14.0225 175.349 14.0225C176.968 14.0225 178.426 14.326 179.723 14.933C181.02 15.54 182.091 16.4981 182.936 17.8073C183.698 18.9618 184.192 20.3008 184.418 21.8243C184.549 22.7169 184.603 24.0023 184.579 25.6805H171.261C171.332 27.6324 171.945 29.0012 173.099 29.7867C173.802 30.2747 174.647 30.5187 175.635 30.5187C176.682 30.5187 177.533 30.2211 178.188 29.626C178.545 29.3047 178.86 28.8583 179.134 28.287H184.329ZM179.294 22.3241C179.211 20.9792 178.8 19.9616 178.063 19.2713C177.337 18.5691 176.432 18.218 175.349 18.218C174.171 18.218 173.254 18.5869 172.6 19.3248C171.957 20.0628 171.552 21.0625 171.386 22.3241H179.294Z" fill="black"/>
<circle cx="12.3019" cy="21.3664" r="12.3019" fill="#3461FF"/>
<path d="M44.7007 20.2478C45.5573 20.7475 45.5573 21.9852 44.7007 22.4849L25.2567 33.8272C24.3934 34.3308 23.3093 33.7081 23.3093 32.7087L23.3093 10.0241C23.3093 9.02464 24.3934 8.40195 25.2567 8.90552L34.9637 14.5679L44.7007 20.2478Z" fill="#3461FF"/>
</svg>
