<svg width="120" height="24" viewBox="0 0 120 24" fill="none" xmlns="http://www.w3.org/2000/svg">
<path d="M8 20L4.24 10.46V20H1.48V5.64H5.12L9.28 16.28L13.46 5.64H17.1V20H14.34V10.38L10.54 20H8ZM24.5147 20.2C23.7414 20.2 23.0214 20.06 22.3547 19.78C21.7014 19.5 21.128 19.1067 20.6347 18.6C20.1547 18.0933 19.7747 17.5067 19.4947 16.84C19.228 16.16 19.0947 15.4333 19.0947 14.66C19.0947 13.8733 19.228 13.1467 19.4947 12.48C19.7747 11.8133 20.1547 11.2267 20.6347 10.72C21.128 10.2133 21.7014 9.82 22.3547 9.54C23.0214 9.26 23.7414 9.12 24.5147 9.12C25.288 9.12 26.0014 9.26 26.6547 9.54C27.3214 9.82 27.8947 10.2133 28.3747 10.72C28.868 11.2267 29.248 11.8133 29.5147 12.48C29.7947 13.1467 29.9347 13.8733 29.9347 14.66C29.9347 15.4333 29.7947 16.16 29.5147 16.84C29.248 17.5067 28.868 18.0933 28.3747 18.6C27.8947 19.1067 27.3214 19.5 26.6547 19.78C26.0014 20.06 25.288 20.2 24.5147 20.2ZM24.5147 17.74C24.9814 17.74 25.408 17.62 25.7947 17.38C26.1814 17.14 26.488 16.7933 26.7147 16.34C26.9547 15.8733 27.0747 15.3133 27.0747 14.66C27.0747 13.9933 26.9547 13.4333 26.7147 12.98C26.488 12.5267 26.1814 12.1867 25.7947 11.96C25.408 11.72 24.9814 11.6 24.5147 11.6C24.0614 11.6 23.6347 11.72 23.2347 11.96C22.848 12.1867 22.5347 12.5267 22.2947 12.98C22.068 13.4333 21.9547 13.9933 21.9547 14.66C21.9547 15.3133 22.068 15.8733 22.2947 16.34C22.5347 16.7933 22.848 17.14 23.2347 17.38C23.6347 17.62 24.0614 17.74 24.5147 17.74ZM34.4888 14.82V20H31.7088V9.32H34.2688V11.38C34.6688 10.7 35.2488 10.1667 36.0088 9.78C36.7688 9.39333 37.5754 9.2 38.4288 9.2V12.08C37.6554 12.0267 36.9688 12.0667 36.3688 12.2C35.7821 12.32 35.3221 12.5933 34.9888 13.02C34.6554 13.4333 34.4888 14.0333 34.4888 14.82ZM44.4347 20.18C43.368 20.18 42.428 19.9533 41.6147 19.5C40.8147 19.0333 40.1947 18.38 39.7547 17.54C39.3147 16.7 39.0947 15.7267 39.0947 14.62C39.0947 13.5533 39.3214 12.6067 39.7747 11.78C40.228 10.9533 40.8547 10.3067 41.6547 9.84C42.4547 9.36 43.368 9.12 44.3947 9.12C45.2347 9.12 45.9947 9.28 46.6747 9.6C47.368 9.90667 47.948 10.3467 48.4147 10.92C48.8814 11.4933 49.2147 12.16 49.4147 12.92C49.6147 13.6667 49.648 14.4733 49.5147 15.34H40.7347V13.58H46.5747C46.548 12.8333 46.328 12.2467 45.9147 11.82C45.5147 11.38 44.988 11.16 44.3347 11.16C43.8147 11.16 43.3747 11.2933 43.0147 11.56C42.6547 11.8267 42.3747 12.22 42.1747 12.74C41.988 13.2467 41.8947 13.8733 41.8947 14.62C41.8947 15.3533 41.988 15.9733 42.1747 16.48C42.3614 16.9867 42.6414 17.3733 43.0147 17.64C43.388 17.9067 43.8414 18.04 44.3747 18.04C44.988 18.04 45.4947 17.8933 45.8947 17.6C46.2947 17.3067 46.5747 16.9 46.7347 16.38H49.4947C49.188 17.58 48.5947 18.5133 47.7147 19.18C46.8347 19.8467 45.7414 20.18 44.4347 20.18ZM58.8364 20H55.7964V5.64H65.0764V8.28H58.8364V11.9H64.0964V14.52H58.8364V20ZM68.9428 14.5H75.3028L76.1028 16.92H68.0628L68.9428 14.5ZM75.9628 20L72.1228 8.96L68.2028 20H65.1428L70.5428 5.64H73.8628L79.2228 20H75.9628ZM86.6323 20.3C85.5923 20.3 84.6257 20.1133 83.7323 19.74C82.8523 19.3667 82.079 18.8467 81.4123 18.18C80.7457 17.5 80.2257 16.7067 79.8523 15.8C79.479 14.88 79.2923 13.88 79.2923 12.8C79.2923 11.72 79.479 10.7267 79.8523 9.82C80.2257 8.91333 80.7457 8.12667 81.4123 7.46C82.079 6.79333 82.8523 6.27333 83.7323 5.9C84.6257 5.52667 85.5923 5.34 86.6323 5.34C87.6723 5.34 88.639 5.52667 89.5323 5.9C90.4257 6.27333 91.2057 6.79333 91.8723 7.46C92.5523 8.12667 93.079 8.91333 93.4523 9.82C93.8257 10.7267 94.0123 11.72 94.0123 12.8C94.0123 13.88 93.8257 14.88 93.4523 15.8C93.079 16.7067 92.5523 17.5 91.8723 18.18C91.2057 18.8467 90.4257 19.3667 89.5323 19.74C88.639 20.1133 87.6723 20.3 86.6323 20.3ZM86.6323 17.58C87.2857 17.58 87.8723 17.46 88.3923 17.22C88.9257 16.9667 89.3723 16.62 89.7323 16.18C90.1057 15.74 90.3857 15.2333 90.5723 14.66C90.7723 14.0733 90.8723 13.4533 90.8723 12.8C90.8723 12.1467 90.7723 11.5333 90.5723 10.96C90.3857 10.3867 90.1057 9.88667 89.7323 9.46C89.3723 9.02 88.9257 8.68 88.3923 8.44C87.8723 8.18667 87.2857 8.06 86.6323 8.06C85.979 8.06 85.3923 8.18667 84.8723 8.44C84.3523 8.68 83.9057 9.02 83.5323 9.46C83.1723 9.88667 82.8923 10.3867 82.6923 10.96C82.5057 11.5333 82.4123 12.1467 82.4123 12.8C82.4123 13.4533 82.5057 14.0733 82.6923 14.66C82.8923 15.2333 83.1723 15.74 83.5323 16.18C83.9057 16.62 84.3523 16.9667 84.8723 17.22C85.3923 17.46 85.979 17.58 86.6323 17.58ZM89.6923 17.74L92.9123 23.64H89.8323L86.9723 18.5L89.6923 17.74Z" fill="#3461FF"/>
<path d="M0 22.1H94.6323V23.1H0V22.1Z" fill="#3461FF"/>
<path fill-rule="evenodd" clip-rule="evenodd" d="M105 12.5322C105 12.2847 105.098 12.0474 105.273 11.8724C105.448 11.6975 105.686 11.5992 105.933 11.5992H116.743L112.736 7.59474C112.561 7.41955 112.463 7.18193 112.463 6.93418C112.463 6.68642 112.561 6.44881 112.736 6.27361C112.912 6.09842 113.149 6 113.397 6C113.645 6 113.882 6.09842 114.058 6.27361L119.656 11.8716C119.742 11.9583 119.811 12.0612 119.858 12.1746C119.905 12.2879 119.93 12.4094 119.93 12.5322C119.93 12.6549 119.905 12.7764 119.858 12.8897C119.811 13.0031 119.742 13.1061 119.656 13.1927L114.058 18.7907C113.882 18.9659 113.645 19.0643 113.397 19.0643C113.149 19.0643 112.912 18.9659 112.736 18.7907C112.561 18.6155 112.463 18.3779 112.463 18.1301C112.463 17.8824 112.561 17.6448 112.736 17.4696L116.743 13.4652H105.933C105.686 13.4652 105.448 13.3669 105.273 13.1919C105.098 13.0169 105 12.7796 105 12.5322Z" fill="#3461FF"/>
</svg>
