<svg width="35" height="31" viewBox="0 0 35 31" fill="none" xmlns="http://www.w3.org/2000/svg">
<path fill-rule="evenodd" clip-rule="evenodd" d="M34.2497 15.5001C34.2497 16.0554 34.0291 16.5879 33.6364 16.9806C33.2438 17.3732 32.7112 17.5938 32.1559 17.5938H7.89772L16.8883 26.5802C17.0829 26.7749 17.2374 27.006 17.3427 27.2603C17.4481 27.5147 17.5023 27.7873 17.5023 28.0626C17.5023 28.3379 17.4481 28.6105 17.3427 28.8648C17.2374 29.1192 17.0829 29.3503 16.8883 29.545C16.6936 29.7396 16.4625 29.894 16.2082 29.9994C15.9538 30.1048 15.6812 30.159 15.4059 30.159C15.1306 30.159 14.858 30.1048 14.6036 29.9994C14.3493 29.894 14.1182 29.7396 13.9235 29.545L1.36103 16.9825C1.16604 16.788 1.01135 16.5569 0.905794 16.3025C0.800242 16.0482 0.745911 15.7755 0.745911 15.5001C0.745911 15.2247 0.800242 14.952 0.905794 14.6976C1.01135 14.4432 1.16604 14.2122 1.36103 14.0177L13.9235 1.45521C14.3167 1.06206 14.8499 0.841187 15.4059 0.841187C15.9619 0.841187 16.4951 1.06206 16.8883 1.45521C17.2814 1.84836 17.5023 2.38158 17.5023 2.93758C17.5023 3.49358 17.2814 4.02681 16.8883 4.41996L7.89772 13.4063H32.1559C32.7112 13.4063 33.2438 13.6269 33.6364 14.0196C34.0291 14.4122 34.2497 14.9448 34.2497 15.5001Z" fill="black" fill-opacity="0.3"/>
</svg>
