<svg width="35" height="31" viewBox="0 0 35 31" fill="none" xmlns="http://www.w3.org/2000/svg">
<path fill-rule="evenodd" clip-rule="evenodd" d="M0.750347 15.5001C0.750347 16.0554 0.970936 16.5879 1.36359 16.9806C1.75624 17.3732 2.2888 17.5938 2.8441 17.5938H27.1023L18.1117 26.5802C17.9171 26.7749 17.7626 27.006 17.6573 27.2603C17.5519 27.5147 17.4977 27.7873 17.4977 28.0626C17.4977 28.3379 17.5519 28.6105 17.6573 28.8648C17.7626 29.1192 17.9171 29.3503 18.1117 29.545C18.3064 29.7396 18.5375 29.894 18.7918 29.9994C19.0462 30.1048 19.3188 30.159 19.5941 30.159C19.8694 30.159 20.142 30.1048 20.3964 29.9994C20.6507 29.894 20.8818 29.7396 21.0765 29.545L33.639 16.9825C33.834 16.788 33.9887 16.5569 34.0942 16.3025C34.1998 16.0482 34.2541 15.7755 34.2541 15.5001C34.2541 15.2247 34.1998 14.952 34.0942 14.6976C33.9887 14.4432 33.834 14.2122 33.639 14.0177L21.0765 1.45521C20.6833 1.06206 20.1501 0.841187 19.5941 0.841187C19.0381 0.841187 18.5049 1.06206 18.1117 1.45521C17.7186 1.84836 17.4977 2.38158 17.4977 2.93758C17.4977 3.49358 17.7186 4.02681 18.1117 4.41996L27.1023 13.4063H2.8441C2.2888 13.4063 1.75624 13.6269 1.36359 14.0196C0.970936 14.4122 0.750347 14.9448 0.750347 15.5001Z" fill="white"/>
</svg>
