<svg width="120" height="24" viewBox="0 0 120 24" fill="none" xmlns="http://www.w3.org/2000/svg">
<path d="M9.684 19H1.332V6.076H4.068V16.534H9.684V19ZM15.3115 19.162C14.3515 19.162 13.5055 18.958 12.7735 18.55C12.0535 18.13 11.4955 17.542 11.0995 16.786C10.7035 16.03 10.5055 15.154 10.5055 14.158C10.5055 13.198 10.7095 12.346 11.1175 11.602C11.5255 10.858 12.0895 10.276 12.8095 9.856C13.5295 9.424 14.3515 9.208 15.2755 9.208C16.0315 9.208 16.7155 9.352 17.3275 9.64C17.9515 9.916 18.4735 10.312 18.8935 10.828C19.3135 11.344 19.6135 11.944 19.7935 12.628C19.9735 13.3 20.0035 14.026 19.8835 14.806H11.9815V13.222H17.2375C17.2135 12.55 17.0155 12.022 16.6435 11.638C16.2835 11.242 15.8095 11.044 15.2215 11.044C14.7535 11.044 14.3575 11.164 14.0335 11.404C13.7095 11.644 13.4575 11.998 13.2775 12.466C13.1095 12.922 13.0255 13.486 13.0255 14.158C13.0255 14.818 13.1095 15.376 13.2775 15.832C13.4455 16.288 13.6975 16.636 14.0335 16.876C14.3695 17.116 14.7775 17.236 15.2575 17.236C15.8095 17.236 16.2655 17.104 16.6255 16.84C16.9855 16.576 17.2375 16.21 17.3815 15.742H19.8655C19.5895 16.822 19.0555 17.662 18.2635 18.262C17.4715 18.862 16.4875 19.162 15.3115 19.162ZM27.2834 19V17.812C26.9714 18.256 26.5754 18.598 26.0954 18.838C25.6154 19.066 25.0454 19.18 24.3854 19.18C23.3894 19.18 22.5854 18.91 21.9734 18.37C21.3614 17.83 21.0554 17.11 21.0554 16.21C21.0554 15.274 21.4274 14.56 22.1714 14.068C22.9154 13.576 23.9834 13.33 25.3754 13.33C25.6514 13.33 25.9154 13.342 26.1674 13.366C26.4194 13.378 26.6894 13.402 26.9774 13.438V12.862C26.9774 12.322 26.8334 11.902 26.5454 11.602C26.2574 11.302 25.8494 11.152 25.3214 11.152C24.7814 11.152 24.3554 11.302 24.0434 11.602C23.7314 11.902 23.5514 12.322 23.5034 12.862H21.2534C21.3014 12.118 21.4994 11.476 21.8474 10.936C22.2074 10.384 22.6814 9.958 23.2694 9.658C23.8694 9.358 24.5534 9.208 25.3214 9.208C26.5814 9.208 27.5594 9.538 28.2554 10.198C28.9634 10.858 29.3174 11.776 29.3174 12.952V19H27.2834ZM23.4134 16.138C23.4134 16.534 23.5454 16.852 23.8094 17.092C24.0854 17.332 24.4574 17.452 24.9254 17.452C25.5614 17.452 26.0594 17.29 26.4194 16.966C26.7914 16.63 26.9774 16.186 26.9774 15.634V14.95C26.6894 14.902 26.4314 14.872 26.2034 14.86C25.9754 14.836 25.7534 14.824 25.5374 14.824C24.8414 14.824 24.3134 14.932 23.9534 15.148C23.5934 15.364 23.4134 15.694 23.4134 16.138ZM33.9754 14.338V19H31.4734V9.388H33.7774V11.242C34.1374 10.63 34.6594 10.15 35.3434 9.802C36.0274 9.454 36.7534 9.28 37.5214 9.28V11.872C36.8254 11.824 36.2074 11.86 35.6674 11.98C35.1394 12.088 34.7254 12.334 34.4254 12.718C34.1254 13.09 33.9754 13.63 33.9754 14.338ZM41.3231 13.762V19H38.8211V9.388H41.1251V10.756C41.4851 10.276 41.9051 9.898 42.3851 9.622C42.8771 9.346 43.4411 9.208 44.0771 9.208C45.0491 9.208 45.8351 9.52 46.4351 10.144C47.0351 10.756 47.3351 11.638 47.3351 12.79V19H44.8511V13.636C44.8511 12.916 44.7071 12.37 44.4191 11.998C44.1431 11.614 43.7231 11.422 43.1591 11.422C42.8231 11.422 42.5111 11.512 42.2231 11.692C41.9471 11.86 41.7251 12.118 41.5571 12.466C41.4011 12.802 41.3231 13.234 41.3231 13.762ZM59.3367 19L55.9527 10.414V19H53.4687V6.076H56.7447L60.4887 15.652L64.2507 6.076H67.5267V19H65.0427V10.342L61.6227 19H59.3367ZM74.1999 19.18C73.5039 19.18 72.8559 19.054 72.2559 18.802C71.6679 18.55 71.1519 18.196 70.7079 17.74C70.2759 17.284 69.9339 16.756 69.6819 16.156C69.4419 15.544 69.3219 14.89 69.3219 14.194C69.3219 13.486 69.4419 12.832 69.6819 12.232C69.9339 11.632 70.2759 11.104 70.7079 10.648C71.1519 10.192 71.6679 9.838 72.2559 9.586C72.8559 9.334 73.5039 9.208 74.1999 9.208C74.8959 9.208 75.5379 9.334 76.1259 9.586C76.7259 9.838 77.2419 10.192 77.6739 10.648C78.1179 11.104 78.4599 11.632 78.6999 12.232C78.9519 12.832 79.0779 13.486 79.0779 14.194C79.0779 14.89 78.9519 15.544 78.6999 16.156C78.4599 16.756 78.1179 17.284 77.6739 17.74C77.2419 18.196 76.7259 18.55 76.1259 18.802C75.5379 19.054 74.8959 19.18 74.1999 19.18ZM74.1999 16.966C74.6199 16.966 75.0039 16.858 75.3519 16.642C75.6999 16.426 75.9759 16.114 76.1799 15.706C76.3959 15.286 76.5039 14.782 76.5039 14.194C76.5039 13.594 76.3959 13.09 76.1799 12.682C75.9759 12.274 75.6999 11.968 75.3519 11.764C75.0039 11.548 74.6199 11.44 74.1999 11.44C73.7919 11.44 73.4079 11.548 73.0479 11.764C72.6999 11.968 72.4179 12.274 72.2019 12.682C71.9979 13.09 71.8959 13.594 71.8959 14.194C71.8959 14.782 71.9979 15.286 72.2019 15.706C72.4179 16.114 72.6999 16.426 73.0479 16.642C73.4079 16.858 73.7919 16.966 74.1999 16.966ZM83.1766 14.338V19H80.6746V9.388H82.9786V11.242C83.3386 10.63 83.8606 10.15 84.5446 9.802C85.2286 9.454 85.9546 9.28 86.7226 9.28V11.872C86.0266 11.824 85.4086 11.86 84.8686 11.98C84.3406 12.088 83.9266 12.334 83.6266 12.718C83.3266 13.09 83.1766 13.63 83.1766 14.338ZM92.1279 19.162C91.1679 19.162 90.3219 18.958 89.5899 18.55C88.8699 18.13 88.3119 17.542 87.9159 16.786C87.5199 16.03 87.3219 15.154 87.3219 14.158C87.3219 13.198 87.5259 12.346 87.9339 11.602C88.3419 10.858 88.9059 10.276 89.6259 9.856C90.3459 9.424 91.1679 9.208 92.0919 9.208C92.8479 9.208 93.5319 9.352 94.1439 9.64C94.7679 9.916 95.2899 10.312 95.7099 10.828C96.1299 11.344 96.4299 11.944 96.6099 12.628C96.7899 13.3 96.8199 14.026 96.6999 14.806H88.7979V13.222H94.0539C94.0299 12.55 93.8319 12.022 93.4599 11.638C93.0999 11.242 92.6259 11.044 92.0379 11.044C91.5699 11.044 91.1739 11.164 90.8499 11.404C90.5259 11.644 90.2739 11.998 90.0939 12.466C89.9259 12.922 89.8419 13.486 89.8419 14.158C89.8419 14.818 89.9259 15.376 90.0939 15.832C90.2619 16.288 90.5139 16.636 90.8499 16.876C91.1859 17.116 91.5939 17.236 92.0739 17.236C92.6259 17.236 93.0819 17.104 93.4419 16.84C93.8019 16.576 94.0539 16.21 94.1979 15.742H96.6819C96.4059 16.822 95.8719 17.662 95.0799 18.262C94.2879 18.862 93.3039 19.162 92.1279 19.162Z" fill="#3461FF"/>
<path d="M0 20.89H97.2579V21.79H0V20.89Z" fill="#3461FF"/>
<path fill-rule="evenodd" clip-rule="evenodd" d="M105 12.5322C105 12.2847 105.098 12.0474 105.273 11.8724C105.448 11.6975 105.686 11.5992 105.933 11.5992H116.743L112.736 7.59474C112.561 7.41955 112.463 7.18193 112.463 6.93418C112.463 6.68642 112.561 6.44881 112.736 6.27361C112.912 6.09842 113.149 6 113.397 6C113.645 6 113.882 6.09842 114.058 6.27361L119.656 11.8716C119.742 11.9583 119.811 12.0612 119.858 12.1746C119.905 12.2879 119.93 12.4094 119.93 12.5322C119.93 12.6549 119.905 12.7764 119.858 12.8897C119.811 13.0031 119.742 13.1061 119.656 13.1927L114.058 18.7907C113.882 18.9659 113.645 19.0643 113.397 19.0643C113.149 19.0643 112.912 18.9659 112.736 18.7907C112.561 18.6155 112.463 18.3779 112.463 18.1301C112.463 17.8824 112.561 17.6448 112.736 17.4696L116.743 13.4652H105.933C105.686 13.4652 105.448 13.3669 105.273 13.1919C105.098 13.0169 105 12.7796 105 12.5322Z" fill="#3461FF"/>
</svg>
